# xmcd
#
# Track frame offsets:
# 150
# 15065
# 29900
# 40480
# 58195
# 75138
# 87117
# 99840
# 116381
# 133998
#
# Disc length: 2013 seconds
#
#
# Revision: 0
# Processed by: cddbd v1.4PL0 Copyright (c) Steve Scherf et al.
# Submitted via: FreeRIP 2.00 
#
DISCID=7107db0a
DTITLE=Merle Haggard - Rainbow Stew
DYEAR=1981
DGENRE=Country
TTITLE0=Misery And Gin
TTITLE1=I Think I'll Just Stay Here And Drink
TTITLE2=Back To The Barrooms
TTITLE3=Our Paths May Never Cross
TTITLE4=The Running Kind
TTITLE5=Rainbow Stew
TTITLE6=Standing On The Corner (Blue Yodel No.9)
TTITLE7=Dealing With The Devil
TTITLE8=Fiddle Breakdown
TTITLE9=Sing Me Back Home
EXTD=MCA MCA 5216
EXTT0=
EXTT1=
EXTT2=
EXTT3=
EXTT4=
EXTT5=
EXTT6=
EXTT7=
EXTT8=
EXTT9=
PLAYORDER=
